<?xml version="1.0" encoding="utf-8"?>
<!-- Generator: Adobe Illustrator 25.0.0, SVG Export Plug-In . SVG Version: 6.00 Build 0)  -->
<svg version="1.1" id="Layer_1" xmlns="http://www.w3.org/2000/svg" xmlns:xlink="http://www.w3.org/1999/xlink" x="0px" y="0px"
	 viewBox="0 0 122 94" style="enable-background:new 0 0 122 94;" xml:space="preserve">
<style type="text/css">
	.st0{fill:url(#SVGID_1_);}
	.st1{opacity:0.6;fill:url(#SVGID_2_);}
	.st2{opacity:0.4;fill:url(#SVGID_3_);}
	.st3{opacity:0.2;fill:url(#SVGID_4_);}
	.st4{fill:url(#SVGID_5_);}
	.st5{fill:url(#SVGID_6_);}
	.st6{opacity:0.4;fill:url(#SVGID_7_);}
	.st7{opacity:0.2;fill:url(#SVGID_8_);}
</style>
<g>
	<g>
		
			<radialGradient id="SVGID_1_" cx="86.2022" cy="20.2397" r="70.2559" gradientTransform="matrix(-0.9934 0 0 -0.7305 172.0639 35.0245)" gradientUnits="userSpaceOnUse">
			<stop  offset="0" style="stop-color:#B6CCD2"/>
			<stop  offset="0.198" style="stop-color:#97B6BE"/>
			<stop  offset="1" style="stop-color:#5C87B4"/>
		</radialGradient>
		<path class="st0" d="M101.65,31.61C100.7,17.56,89.09,6.46,74.89,6.46c-14.2,0-25.81,11.1-26.76,25.15
			c-10.57,0.53-18.99,9.32-18.99,20.1c0,11.12,8.95,20.12,19.99,20.12h51.52c11.04,0,19.99-9.01,19.99-20.12
			C120.64,40.93,112.23,32.13,101.65,31.61z"/>
		
			<radialGradient id="SVGID_2_" cx="1097.0222" cy="-1880.5681" r="8.4764" gradientTransform="matrix(-0.8337 1.1536 -1.608 -1.3126 -2025.4635 -3709.6245)" gradientUnits="userSpaceOnUse">
			<stop  offset="0" style="stop-color:#FFFFFF"/>
			<stop  offset="1" style="stop-color:#FFFFFF;stop-opacity:0"/>
		</radialGradient>
		<path class="st1" d="M76.77,34.11c-7.53-6.15-10.46-15.5-6.56-20.9c3.9-5.4,13.17-4.79,20.7,1.35c7.52,6.14,10.46,15.51,6.56,20.9
			C93.56,40.86,84.3,40.26,76.77,34.11z"/>
		
			<radialGradient id="SVGID_3_" cx="1097.6029" cy="-1895.4915" r="6.6615" gradientTransform="matrix(-0.8337 1.1536 -1.608 -1.3126 -2025.4635 -3709.6245)" gradientUnits="userSpaceOnUse">
			<stop  offset="0" style="stop-color:#FFFFFF"/>
			<stop  offset="1" style="stop-color:#FFFFFF;stop-opacity:0"/>
		</radialGradient>
		<path class="st2" d="M101.79,52.28c-5.91-4.83-8.22-12.18-5.16-16.43c3.07-4.24,10.35-3.77,16.27,1.06
			c5.91,4.83,8.22,12.19,5.16,16.43C114.99,57.58,107.71,57.11,101.79,52.28z"/>
		
			<radialGradient id="SVGID_4_" cx="39.4675" cy="57.9887" r="4.8709" gradientTransform="matrix(0.8951 -0.4338 1.2545 2.6229 -68.0699 -76.9905)" gradientUnits="userSpaceOnUse">
			<stop  offset="0" style="stop-color:#FFFFFF"/>
			<stop  offset="1" style="stop-color:#FFFFFF;stop-opacity:0"/>
		</radialGradient>
		<path class="st3" d="M43.43,52.95C39.07,46.1,34,42.8,32.1,45.58c-1.89,2.78,0.11,10.59,4.47,17.45
			c4.37,6.85,9.44,10.15,11.33,7.37C49.8,67.61,47.8,59.81,43.43,52.95z"/>
	</g>
	<g>
		
			<radialGradient id="SVGID_5_" cx="57.8397" cy="34.0819" r="70.2574" gradientTransform="matrix(-0.9934 0 0 -0.7305 115.712 58.9783)" gradientUnits="userSpaceOnUse">
			<stop  offset="0" style="stop-color:#FFFFFF"/>
			<stop  offset="0.198" style="stop-color:#D6EEFB"/>
			<stop  offset="1" style="stop-color:#88BAE5"/>
		</radialGradient>
		<path class="st4" d="M73.48,45.45C72.53,31.4,60.91,20.3,46.71,20.3c-14.2,0-25.81,11.1-26.76,25.15
			C9.38,45.98,0.96,54.78,0.96,65.55c0,11.12,8.95,20.12,19.99,20.12h51.52c11.04,0,19.99-9.01,19.99-20.12
			C92.47,54.78,84.05,45.98,73.48,45.45z"/>
		
			<radialGradient id="SVGID_6_" cx="1117.9448" cy="-1872.7257" r="8.4765" gradientTransform="matrix(-0.8337 1.1536 -1.608 -1.3126 -2025.4635 -3709.6245)" gradientUnits="userSpaceOnUse">
			<stop  offset="0" style="stop-color:#FFFFFF"/>
			<stop  offset="1" style="stop-color:#FFFFFF;stop-opacity:0"/>
		</radialGradient>
		<path class="st5" d="M46.72,47.96c-7.52-6.15-10.46-15.5-6.56-20.9c3.9-5.4,13.17-4.8,20.7,1.35c7.52,6.15,10.46,15.51,6.56,20.9
			C63.51,54.71,54.24,54.1,46.72,47.96z"/>
		
			<radialGradient id="SVGID_7_" cx="1117.6903" cy="-1888.3831" r="6.6614" gradientTransform="matrix(-0.8337 1.1536 -1.608 -1.3126 -2025.4635 -3709.6245)" gradientUnits="userSpaceOnUse">
			<stop  offset="0" style="stop-color:#FFFFFF"/>
			<stop  offset="1" style="stop-color:#FFFFFF;stop-opacity:0"/>
		</radialGradient>
		<path class="st6" d="M73.62,66.12c-5.91-4.83-8.22-12.19-5.16-16.43c3.07-4.24,10.35-3.77,16.27,1.06
			c5.91,4.83,8.22,12.19,5.16,16.43C86.81,71.42,79.53,70.95,73.62,66.12z"/>
		
			<radialGradient id="SVGID_8_" cx="11.105" cy="71.8314" r="4.8711" gradientTransform="matrix(0.8951 -0.4338 1.2545 2.6229 -88.224 -111.7593)" gradientUnits="userSpaceOnUse">
			<stop  offset="0" style="stop-color:#FFFFFF"/>
			<stop  offset="1" style="stop-color:#FFFFFF;stop-opacity:0"/>
		</radialGradient>
		<path class="st7" d="M15.26,66.79c-4.36-6.85-9.43-10.15-11.33-7.37C2.03,62.2,4.03,70.01,8.39,76.87
			c4.37,6.85,9.44,10.15,11.33,7.37C21.62,81.46,19.62,73.65,15.26,66.79z"/>
	</g>
</g>
</svg>
