<?xml version="1.0" encoding="utf-8"?>
<!-- Generator: Adobe Illustrator 25.0.0, SVG Export Plug-In . SVG Version: 6.00 Build 0)  -->
<svg version="1.1" id="Layer_1" xmlns="http://www.w3.org/2000/svg" xmlns:xlink="http://www.w3.org/1999/xlink" x="0px" y="0px"
	 viewBox="0 0 122 94" style="enable-background:new 0 0 122 94;" xml:space="preserve">
<style type="text/css">
	.st0{fill:url(#SVGID_1_);}
	.st1{fill:url(#SVGID_2_);}
	.st2{fill:url(#SVGID_3_);}
	.st3{opacity:0.4;fill:url(#SVGID_4_);}
</style>
<g>
	<linearGradient id="SVGID_1_" gradientUnits="userSpaceOnUse" x1="95.5395" y1="7.7517" x2="28.2814" y2="82.9106">
		<stop  offset="0" style="stop-color:#FBB92C"/>
		<stop  offset="1" style="stop-color:#EA571C"/>
	</linearGradient>
	<polygon class="st0" points="90.59,70.59 82.21,71.14 80.63,79.39 72.56,77.04 68.25,84.26 61.48,79.29 54.96,84.6 50.3,77.61 
		42.36,80.37 40.36,72.21 31.96,72.09 32.87,63.74 25.02,60.75 28.74,53.21 22.38,47.72 28.45,41.91 24.35,34.57 32.04,31.19 
		30.7,22.89 39.09,22.34 40.67,14.09 48.73,16.44 53.04,9.22 59.82,14.19 66.33,8.89 71,15.87 78.94,13.11 80.93,21.27 89.33,21.4 
		88.42,29.75 96.27,32.73 92.56,40.27 98.91,45.77 92.85,51.58 96.94,58.91 89.25,62.3 	"/>
	
		<radialGradient id="SVGID_2_" cx="-119.4572" cy="28.9711" r="53.8068" gradientTransform="matrix(-1 0 0 1 -52.3271 0)" gradientUnits="userSpaceOnUse">
		<stop  offset="0" style="stop-color:#FFF4C3"/>
		<stop  offset="0.1559" style="stop-color:#FFE036"/>
		<stop  offset="1" style="stop-color:#EE7525"/>
	</radialGradient>
	<path class="st1" d="M32.3,46.74c0,15.65,12.69,28.35,28.34,28.35c15.65,0,28.34-12.69,28.34-28.35
		c0-15.65-12.69-28.34-28.34-28.34C44.99,18.4,32.3,31.09,32.3,46.74z"/>
	<g>
		
			<radialGradient id="SVGID_3_" cx="1107.8077" cy="-1878.8398" r="8.0769" gradientTransform="matrix(-0.8392 1.1536 -1.6186 -1.3126 -2039.674 -3709.6245)" gradientUnits="userSpaceOnUse">
			<stop  offset="0" style="stop-color:#FFFFFF"/>
			<stop  offset="1" style="stop-color:#FFFFFF;stop-opacity:0"/>
		</radialGradient>
		<path class="st2" d="M64.97,43.83c-7.22-5.86-10.04-14.77-6.3-19.92c3.74-5.15,12.63-4.57,19.85,1.29
			c7.22,5.86,10.03,14.78,6.29,19.92C81.07,50.26,72.18,49.68,64.97,43.83z"/>
		
			<radialGradient id="SVGID_4_" cx="-2973.8567" cy="2913.0544" r="7.7937" gradientTransform="matrix(-1.1717 -1.1007 0.222 -0.7283 -4086.4375 -1090.1615)" gradientUnits="userSpaceOnUse">
			<stop  offset="0" style="stop-color:#FFFFFF"/>
			<stop  offset="1" style="stop-color:#FFFFFF;stop-opacity:0"/>
		</radialGradient>
		<path class="st3" d="M35.6,53.01c0.96-3.13,5.82-1.84,10.86,2.9c5.04,4.74,8.36,11.12,7.4,14.26C52.91,73.3,48.05,72,43,67.26
			C37.96,62.52,34.64,56.14,35.6,53.01z"/>
	</g>
</g>
</svg>
