<?xml version="1.0" encoding="utf-8"?>
<!-- Generator: Adobe Illustrator 25.0.0, SVG Export Plug-In . SVG Version: 6.00 Build 0)  -->
<svg version="1.1" id="Layer_1" xmlns="http://www.w3.org/2000/svg" xmlns:xlink="http://www.w3.org/1999/xlink" x="0px" y="0px"
	 viewBox="0 0 122 94" style="enable-background:new 0 0 122 94;" xml:space="preserve">
<style type="text/css">
	.st0{fill:url(#SVGID_1_);}
	.st1{fill:url(#SVGID_2_);}
	.st2{fill:url(#SVGID_3_);}
	.st3{opacity:0.4;fill:url(#SVGID_4_);}
	.st4{fill:url(#SVGID_5_);}
	.st5{fill:url(#SVGID_6_);}
	.st6{fill:url(#SVGID_7_);}
	.st7{opacity:0.4;fill:url(#SVGID_8_);}
	.st8{opacity:0.2;fill:url(#SVGID_9_);}
	.st9{fill:url(#SVGID_10_);}
	.st10{fill:url(#SVGID_11_);}
	.st11{fill:url(#SVGID_12_);}
	.st12{opacity:0.4;fill:url(#SVGID_13_);}
	.st13{opacity:0.2;fill:url(#SVGID_14_);}
</style>
<g>
	<g>
		<linearGradient id="SVGID_1_" gradientUnits="userSpaceOnUse" x1="97.2417" y1="7.3957" x2="29.9832" y2="82.5549">
			<stop  offset="0" style="stop-color:#FBB92C"/>
			<stop  offset="1" style="stop-color:#EA571C"/>
		</linearGradient>
		<polygon class="st0" points="92.29,70.24 83.91,70.79 82.33,79.04 74.26,76.69 69.96,83.9 63.18,78.94 56.67,84.24 52,77.26 
			44.06,80.02 42.06,71.86 33.66,71.73 34.58,63.38 26.72,60.39 30.44,52.86 24.08,47.36 30.15,41.55 26.06,34.21 33.74,30.83 
			32.41,22.54 40.79,21.99 42.37,13.73 50.44,16.08 54.74,8.87 61.52,13.84 68.03,8.53 72.7,15.51 80.64,12.76 82.64,20.92 
			91.04,21.04 90.12,29.39 97.98,32.38 94.26,39.92 100.62,45.41 94.55,51.22 98.64,58.56 90.95,61.94 		"/>
		
			<radialGradient id="SVGID_2_" cx="-121.1595" cy="28.6156" r="53.8071" gradientTransform="matrix(-1 0 0 1 -52.3271 0)" gradientUnits="userSpaceOnUse">
			<stop  offset="0" style="stop-color:#FFF4C3"/>
			<stop  offset="0.1559" style="stop-color:#FFE036"/>
			<stop  offset="1" style="stop-color:#EE7525"/>
		</radialGradient>
		<path class="st1" d="M34.01,46.38c0,15.65,12.69,28.35,28.34,28.35c15.65,0,28.35-12.69,28.35-28.35
			c0-15.65-12.69-28.34-28.35-28.34C46.7,18.04,34.01,30.73,34.01,46.38z"/>
		<g>
			
				<radialGradient id="SVGID_3_" cx="1106.8612" cy="-1879.4006" r="8.0769" gradientTransform="matrix(-0.8392 1.1536 -1.6186 -1.3126 -2039.674 -3709.6245)" gradientUnits="userSpaceOnUse">
				<stop  offset="0" style="stop-color:#FFFFFF"/>
				<stop  offset="1" style="stop-color:#FFFFFF;stop-opacity:0"/>
			</radialGradient>
			<path class="st2" d="M66.67,43.47c-7.22-5.86-10.04-14.77-6.3-19.92c3.75-5.15,12.63-4.57,19.85,1.29
				c7.22,5.86,10.03,14.78,6.29,19.92C82.77,49.9,73.89,49.32,66.67,43.47z"/>
			
				<radialGradient id="SVGID_4_" cx="-2974.9141" cy="2915.1411" r="7.7937" gradientTransform="matrix(-1.1717 -1.1007 0.222 -0.7283 -4086.4375 -1090.1615)" gradientUnits="userSpaceOnUse">
				<stop  offset="0" style="stop-color:#FFFFFF"/>
				<stop  offset="1" style="stop-color:#FFFFFF;stop-opacity:0"/>
			</radialGradient>
			<path class="st3" d="M37.3,52.65c0.96-3.13,5.82-1.84,10.86,2.9c5.04,4.74,8.36,11.12,7.4,14.26c-0.95,3.13-5.82,1.84-10.86-2.9
				C39.66,62.17,36.35,55.78,37.3,52.65z"/>
		</g>
	</g>
	<g>
		
			<radialGradient id="SVGID_5_" cx="37.5685" cy="57.0411" r="37.0423" gradientTransform="matrix(-1 0 0 -0.7305 75.137 98.709)" gradientUnits="userSpaceOnUse">
			<stop  offset="0" style="stop-color:#FFFFFF"/>
			<stop  offset="0.198" style="stop-color:#D6EEFB"/>
			<stop  offset="1" style="stop-color:#88BAE5"/>
		</radialGradient>
		<path class="st4" d="M45.65,63.04c-0.51-7.41-6.67-13.26-14.2-13.26c-7.53,0-13.7,5.85-14.2,13.26
			c-5.61,0.28-10.08,4.92-10.08,10.6c0,5.86,4.75,10.61,10.61,10.61h27.34c5.86,0,10.61-4.75,10.61-10.61
			C55.73,67.95,51.26,63.31,45.65,63.04z"/>
		<radialGradient id="SVGID_6_" cx="45.972" cy="61.8749" r="42.1125" gradientUnits="userSpaceOnUse">
			<stop  offset="0" style="stop-color:#FFE036"/>
			<stop  offset="0.1112" style="stop-color:#FBC832;stop-opacity:0.8554"/>
			<stop  offset="0.2463" style="stop-color:#F7AC2D;stop-opacity:0.6796"/>
			<stop  offset="0.3813" style="stop-color:#F39529;stop-opacity:0.504"/>
			<stop  offset="0.5144" style="stop-color:#F08427;stop-opacity:0.3309"/>
			<stop  offset="0.6447" style="stop-color:#EF7925;stop-opacity:0.1615"/>
			<stop  offset="0.7688" style="stop-color:#EE7525;stop-opacity:0"/>
		</radialGradient>
		<path class="st5" d="M45.65,63.04c-0.51-7.41-6.67-13.26-14.2-13.26c-7.53,0-13.7,5.85-14.2,13.26
			c-5.61,0.28-10.08,4.92-10.08,10.6c0,5.86,4.75,10.61,10.61,10.61h27.34c5.86,0,10.61-4.75,10.61-10.61
			C55.73,67.95,51.26,63.31,45.65,63.04z"/>
		
			<radialGradient id="SVGID_7_" cx="1137.4296" cy="-1871.6179" r="4.469" gradientTransform="matrix(-0.8392 1.1536 -1.6186 -1.3126 -2039.674 -3709.6245)" gradientUnits="userSpaceOnUse">
			<stop  offset="0" style="stop-color:#FFFFFF"/>
			<stop  offset="1" style="stop-color:#FFFFFF;stop-opacity:0"/>
		</radialGradient>
		<path class="st6" d="M31.45,64.36c-3.99-3.24-5.55-8.17-3.48-11.02c2.07-2.85,6.99-2.53,10.98,0.71
			c3.99,3.24,5.55,8.18,3.48,11.02C40.36,67.91,35.44,67.59,31.45,64.36z"/>
		
			<radialGradient id="SVGID_8_" cx="1137.2953" cy="-1879.8733" r="3.5123" gradientTransform="matrix(-0.8392 1.1536 -1.6186 -1.3126 -2039.674 -3709.6245)" gradientUnits="userSpaceOnUse">
			<stop  offset="0" style="stop-color:#FFFFFF"/>
			<stop  offset="1" style="stop-color:#FFFFFF;stop-opacity:0"/>
		</radialGradient>
		<path class="st7" d="M45.72,73.93c-3.14-2.55-4.36-6.42-2.74-8.66c1.63-2.24,5.49-1.99,8.63,0.56c3.14,2.55,4.36,6.43,2.74,8.66
			C52.73,76.73,48.86,76.48,45.72,73.93z"/>
		
			<radialGradient id="SVGID_9_" cx="12.9282" cy="76.9437" r="2.5683" gradientTransform="matrix(0.901 -0.4338 1.2628 2.6229 -95.8822 -119.2653)" gradientUnits="userSpaceOnUse">
			<stop  offset="0" style="stop-color:#FFFFFF"/>
			<stop  offset="1" style="stop-color:#FFFFFF;stop-opacity:0"/>
		</radialGradient>
		<path class="st8" d="M14.75,74.29c-2.32-3.61-5.01-5.35-6.01-3.89c-1,1.46,0.06,5.58,2.37,9.2c2.32,3.61,5.01,5.36,6.01,3.89
			C18.13,82.02,17.06,77.9,14.75,74.29z"/>
	</g>
	<g>
		
			<radialGradient id="SVGID_10_" cx="99.8765" cy="28.5286" r="28.6809" gradientTransform="matrix(-1 0 0 -0.7305 199.753 49.3683)" gradientUnits="userSpaceOnUse">
			<stop  offset="0" style="stop-color:#FFFFFF"/>
			<stop  offset="0.198" style="stop-color:#D6EEFB"/>
			<stop  offset="1" style="stop-color:#88BAE5"/>
		</radialGradient>
		<path class="st9" d="M106.13,33.17c-0.39-5.73-5.17-10.27-11-10.27c-5.83,0-10.61,4.53-11,10.27c-4.34,0.21-7.8,3.81-7.8,8.2
			c0,4.54,3.68,8.22,8.21,8.22h21.17c4.54,0,8.21-3.68,8.21-8.22C113.94,36.98,110.48,33.38,106.13,33.17z"/>
		<radialGradient id="SVGID_11_" cx="81.139" cy="38.3769" r="38.3271" gradientUnits="userSpaceOnUse">
			<stop  offset="0" style="stop-color:#FFE036"/>
			<stop  offset="0.1112" style="stop-color:#FBC832;stop-opacity:0.8554"/>
			<stop  offset="0.2463" style="stop-color:#F7AC2D;stop-opacity:0.6796"/>
			<stop  offset="0.3813" style="stop-color:#F39529;stop-opacity:0.504"/>
			<stop  offset="0.5144" style="stop-color:#F08427;stop-opacity:0.3309"/>
			<stop  offset="0.6447" style="stop-color:#EF7925;stop-opacity:0.1615"/>
			<stop  offset="0.7688" style="stop-color:#EE7525;stop-opacity:0"/>
		</radialGradient>
		<path class="st10" d="M106.13,33.17c-0.39-5.73-5.17-10.27-11-10.27c-5.83,0-10.61,4.53-11,10.27c-4.34,0.21-7.8,3.81-7.8,8.2
			c0,4.54,3.68,8.22,8.21,8.22h21.17c4.54,0,8.21-3.68,8.21-8.22C113.94,36.98,110.48,33.38,106.13,33.17z"/>
		
			<radialGradient id="SVGID_12_" cx="1093.832" cy="-1887.8403" r="3.4605" gradientTransform="matrix(-0.8392 1.1536 -1.6186 -1.3126 -2039.674 -3709.6245)" gradientUnits="userSpaceOnUse">
			<stop  offset="0" style="stop-color:#FFFFFF"/>
			<stop  offset="1" style="stop-color:#FFFFFF;stop-opacity:0"/>
		</radialGradient>
		<path class="st11" d="M95.14,34.19c-3.09-2.51-4.3-6.33-2.7-8.53c1.6-2.21,5.41-1.96,8.51,0.55c3.09,2.51,4.3,6.33,2.7,8.54
			C102.04,36.95,98.23,36.7,95.14,34.19z"/>
		
			<radialGradient id="SVGID_13_" cx="1093.7285" cy="-1894.2321" r="2.7195" gradientTransform="matrix(-0.8392 1.1536 -1.6186 -1.3126 -2039.674 -3709.6245)" gradientUnits="userSpaceOnUse">
			<stop  offset="0" style="stop-color:#FFFFFF"/>
			<stop  offset="1" style="stop-color:#FFFFFF;stop-opacity:0"/>
		</radialGradient>
		<path class="st12" d="M106.19,41.61c-2.43-1.97-3.38-4.97-2.12-6.71c1.26-1.73,4.25-1.54,6.68,0.43c2.43,1.97,3.38,4.98,2.12,6.71
			C111.61,43.77,108.62,43.58,106.19,41.61z"/>
		
			<radialGradient id="SVGID_14_" cx="80.7988" cy="43.9383" r="1.9884" gradientTransform="matrix(0.901 -0.4338 1.2628 2.6229 -47.4861 -36.2592)" gradientUnits="userSpaceOnUse">
			<stop  offset="0" style="stop-color:#FFFFFF"/>
			<stop  offset="1" style="stop-color:#FFFFFF;stop-opacity:0"/>
		</radialGradient>
		<path class="st13" d="M82.21,41.88c-1.79-2.8-3.88-4.14-4.66-3.01c-0.78,1.13,0.05,4.32,1.84,7.12c1.79,2.8,3.88,4.14,4.66,3.01
			C84.82,47.87,84,44.68,82.21,41.88z"/>
	</g>
</g>
</svg>
