<?xml version="1.0" encoding="utf-8"?>
<!-- Generator: Adobe Illustrator 25.0.0, SVG Export Plug-In . SVG Version: 6.00 Build 0)  -->
<svg version="1.1" id="Layer_1" xmlns="http://www.w3.org/2000/svg" xmlns:xlink="http://www.w3.org/1999/xlink" x="0px" y="0px"
	 viewBox="0 0 283.46 283.46" style="enable-background:new 0 0 283.46 283.46;" xml:space="preserve">
<style type="text/css">
	.st0{fill:url(#SVGID_1_);}
	.st1{fill:url(#SVGID_2_);}
	.st2{fill:url(#SVGID_3_);}
	.st3{opacity:0.4;fill:url(#SVGID_4_);}
	.st4{fill:url(#SVGID_5_);}
	.st5{fill:url(#SVGID_6_);}
	.st6{fill:url(#SVGID_7_);}
	.st7{opacity:0.4;fill:url(#SVGID_8_);}
	.st8{opacity:0.2;fill:url(#SVGID_9_);}
	.st9{fill:url(#SVGID_10_);}
	.st10{fill:url(#SVGID_11_);}
	.st11{fill:url(#SVGID_12_);}
	.st12{opacity:0.4;fill:url(#SVGID_13_);}
	.st13{opacity:0.2;fill:url(#SVGID_14_);}
	.st14{fill:url(#SVGID_15_);}
	.st15{fill:url(#SVGID_16_);}
	.st16{fill:url(#SVGID_17_);}
	.st17{fill:url(#SVGID_18_);}
	.st18{fill:url(#SVGID_19_);}
	.st19{fill:url(#SVGID_20_);}
	.st20{fill:url(#SVGID_21_);}
	.st21{fill:url(#SVGID_22_);}
</style>
<g>
	<g>
		<linearGradient id="SVGID_1_" gradientUnits="userSpaceOnUse" x1="236.1268" y1="19.357" x2="63.1676" y2="212.6336">
			<stop  offset="0" style="stop-color:#FBB92C"/>
			<stop  offset="1" style="stop-color:#EA571C"/>
		</linearGradient>
		<polygon class="st0" points="223.4,180.96 201.84,182.37 197.78,203.59 177.04,197.55 165.96,216.1 148.54,203.33 131.78,216.97 
			119.78,199.01 99.37,206.1 94.23,185.12 72.63,184.8 74.98,163.33 54.79,155.64 64.34,136.26 48,122.13 63.6,107.19 53.07,88.32 
			72.84,79.62 69.4,58.29 90.96,56.88 95.02,35.66 115.76,41.7 126.84,23.15 144.26,35.92 161.01,22.28 173.02,40.23 193.43,33.14 
			198.57,54.13 220.17,54.45 217.82,75.92 238.01,83.6 228.46,102.98 244.81,117.11 229.21,132.06 239.73,150.92 219.96,159.62 		
			"/>
		
			<radialGradient id="SVGID_2_" cx="-53.3977" cy="73.9254" r="138.3682" gradientTransform="matrix(-1 0 0 1 109.6729 0)" gradientUnits="userSpaceOnUse">
			<stop  offset="0" style="stop-color:#FFF4C3"/>
			<stop  offset="0.1559" style="stop-color:#FFE036"/>
			<stop  offset="1" style="stop-color:#EE7525"/>
		</radialGradient>
		<path class="st1" d="M73.51,119.62c0,40.26,32.63,72.89,72.89,72.89c40.26,0,72.89-32.64,72.89-72.89
			c0-40.25-32.64-72.88-72.89-72.88C106.14,46.74,73.51,79.37,73.51,119.62z"/>
		<g>
			
				<radialGradient id="SVGID_3_" cx="1156.4543" cy="-1780.7753" r="20.7702" gradientTransform="matrix(-0.8392 1.1536 -1.6186 -1.3126 -1736.9318 -3583.3691)" gradientUnits="userSpaceOnUse">
				<stop  offset="0" style="stop-color:#FFFFFF"/>
				<stop  offset="1" style="stop-color:#FFFFFF;stop-opacity:0"/>
			</radialGradient>
			<path class="st2" d="M157.51,112.13c-18.57-15.07-25.82-37.99-16.19-51.23c9.63-13.23,32.48-11.74,51.05,3.3
				c18.56,15.06,25.8,38,16.18,51.22C198.92,128.67,176.07,127.17,157.51,112.13z"/>
			
				<radialGradient id="SVGID_4_" cx="-2879.6553" cy="2986.4443" r="20.042" gradientTransform="matrix(-1.1717 -1.1007 0.222 -0.7283 -3931.6196 -836.8163)" gradientUnits="userSpaceOnUse">
				<stop  offset="0" style="stop-color:#FFFFFF"/>
				<stop  offset="1" style="stop-color:#FFFFFF;stop-opacity:0"/>
			</radialGradient>
			<path class="st3" d="M81.98,135.73c2.46-8.06,14.96-4.72,27.93,7.46c12.97,12.18,21.49,28.59,19.04,36.66
				c-2.45,8.06-14.95,4.72-27.93-7.46C88.05,160.2,79.53,143.78,81.98,135.73z"/>
		</g>
	</g>
	<g>
		
			<radialGradient id="SVGID_5_" cx="82.6735" cy="147.0234" r="95.2564" gradientTransform="matrix(-1 0 0 -0.7305 165.3469 254.4223)" gradientUnits="userSpaceOnUse">
			<stop  offset="0" style="stop-color:#FFFFFF"/>
			<stop  offset="0.198" style="stop-color:#D6EEFB"/>
			<stop  offset="1" style="stop-color:#88BAE5"/>
		</radialGradient>
		<path class="st4" d="M103.45,162.44c-1.3-19.05-17.15-34.09-36.53-34.09c-19.37,0-35.23,15.05-36.53,34.09
			c-14.43,0.71-25.91,12.64-25.91,27.25c0,15.07,12.22,27.29,27.29,27.29h70.32c15.07,0,27.29-12.21,27.29-27.29
			C129.37,175.08,117.88,163.15,103.45,162.44z"/>
		<radialGradient id="SVGID_6_" cx="104.2837" cy="159.4538" r="108.2948" gradientUnits="userSpaceOnUse">
			<stop  offset="0" style="stop-color:#FFE036"/>
			<stop  offset="0.1112" style="stop-color:#FBC832;stop-opacity:0.8554"/>
			<stop  offset="0.2463" style="stop-color:#F7AC2D;stop-opacity:0.6796"/>
			<stop  offset="0.3813" style="stop-color:#F39529;stop-opacity:0.504"/>
			<stop  offset="0.5144" style="stop-color:#F08427;stop-opacity:0.3309"/>
			<stop  offset="0.6447" style="stop-color:#EF7925;stop-opacity:0.1615"/>
			<stop  offset="0.7688" style="stop-color:#EE7525;stop-opacity:0"/>
		</radialGradient>
		<path class="st5" d="M103.45,162.44c-1.3-19.05-17.15-34.09-36.53-34.09c-19.37,0-35.23,15.05-36.53,34.09
			c-14.43,0.71-25.91,12.64-25.91,27.25c0,15.07,12.22,27.29,27.29,27.29h70.32c15.07,0,27.29-12.21,27.29-27.29
			C129.37,175.08,117.88,163.15,103.45,162.44z"/>
		
			<radialGradient id="SVGID_7_" cx="1235.0627" cy="-1760.7615" r="11.4923" gradientTransform="matrix(-0.8392 1.1536 -1.6186 -1.3126 -1736.9318 -3583.3691)" gradientUnits="userSpaceOnUse">
			<stop  offset="0" style="stop-color:#FFFFFF"/>
			<stop  offset="1" style="stop-color:#FFFFFF;stop-opacity:0"/>
		</radialGradient>
		<path class="st6" d="M66.93,165.83c-10.27-8.33-14.28-21.02-8.96-28.34c5.33-7.32,17.97-6.49,28.25,1.83
			c10.27,8.33,14.28,21.02,8.96,28.34C89.84,174.98,77.2,174.16,66.93,165.83z"/>
		
			<radialGradient id="SVGID_8_" cx="1234.7173" cy="-1781.9906" r="9.0319" gradientTransform="matrix(-0.8392 1.1536 -1.6186 -1.3126 -1736.9318 -3583.3691)" gradientUnits="userSpaceOnUse">
			<stop  offset="0" style="stop-color:#FFFFFF"/>
			<stop  offset="1" style="stop-color:#FFFFFF;stop-opacity:0"/>
		</radialGradient>
		<path class="st7" d="M103.65,190.46c-8.07-6.55-11.22-16.52-7.04-22.28c4.19-5.76,14.13-5.11,22.2,1.44
			c8.07,6.55,11.22,16.52,7.04,22.27C121.65,197.65,111.72,197.01,103.65,190.46z"/>
		
			<radialGradient id="SVGID_9_" cx="19.3094" cy="198.204" r="6.6045" gradientTransform="matrix(0.901 -0.4338 1.2628 2.6229 -248.3737 -313.2926)" gradientUnits="userSpaceOnUse">
			<stop  offset="0" style="stop-color:#FFFFFF"/>
			<stop  offset="1" style="stop-color:#FFFFFF;stop-opacity:0"/>
		</radialGradient>
		<path class="st8" d="M23.99,191.38c-5.96-9.29-12.88-13.77-15.47-10c-2.58,3.77,0.15,14.36,6.1,23.65
			c5.96,9.29,12.88,13.77,15.47,10C32.68,211.25,29.95,200.67,23.99,191.38z"/>
	</g>
	<g>
		
			<radialGradient id="SVGID_10_" cx="242.9024" cy="73.7014" r="73.755" gradientTransform="matrix(-1 0 0 -0.7305 485.8048 127.5394)" gradientUnits="userSpaceOnUse">
			<stop  offset="0" style="stop-color:#FFFFFF"/>
			<stop  offset="0.198" style="stop-color:#D6EEFB"/>
			<stop  offset="1" style="stop-color:#88BAE5"/>
		</radialGradient>
		<path class="st9" d="M258.99,85.64c-1.01-14.75-13.28-26.4-28.28-26.4c-15,0-27.28,11.65-28.28,26.4
			c-11.17,0.55-20.07,9.79-20.07,21.1c0,11.67,9.46,21.13,21.12,21.13h54.44c11.67,0,21.13-9.46,21.13-21.13
			C279.06,95.43,270.16,86.19,258.99,85.64z"/>
		<radialGradient id="SVGID_11_" cx="194.7177" cy="99.0272" r="98.5606" gradientUnits="userSpaceOnUse">
			<stop  offset="0" style="stop-color:#FFE036"/>
			<stop  offset="0.1112" style="stop-color:#FBC832;stop-opacity:0.8554"/>
			<stop  offset="0.2463" style="stop-color:#F7AC2D;stop-opacity:0.6796"/>
			<stop  offset="0.3813" style="stop-color:#F39529;stop-opacity:0.504"/>
			<stop  offset="0.5144" style="stop-color:#F08427;stop-opacity:0.3309"/>
			<stop  offset="0.6447" style="stop-color:#EF7925;stop-opacity:0.1615"/>
			<stop  offset="0.7688" style="stop-color:#EE7525;stop-opacity:0"/>
		</radialGradient>
		<path class="st10" d="M258.99,85.64c-1.01-14.75-13.28-26.4-28.28-26.4c-15,0-27.28,11.65-28.28,26.4
			c-11.17,0.55-20.07,9.79-20.07,21.1c0,11.67,9.46,21.13,21.12,21.13h54.44c11.67,0,21.13-9.46,21.13-21.13
			C279.06,95.43,270.16,86.19,258.99,85.64z"/>
		
			<radialGradient id="SVGID_12_" cx="1122.9489" cy="-1802.4784" r="8.899" gradientTransform="matrix(-0.8392 1.1536 -1.6186 -1.3126 -1736.9318 -3583.3691)" gradientUnits="userSpaceOnUse">
			<stop  offset="0" style="stop-color:#FFFFFF"/>
			<stop  offset="1" style="stop-color:#FFFFFF;stop-opacity:0"/>
		</radialGradient>
		<path class="st11" d="M230.71,88.26c-7.95-6.45-11.06-16.27-6.94-21.94s13.92-5.03,21.87,1.41c7.95,6.45,11.05,16.28,6.93,21.95
			C248.45,95.35,238.66,94.71,230.71,88.26z"/>
		
			<radialGradient id="SVGID_13_" cx="1122.6827" cy="-1818.915" r="6.9934" gradientTransform="matrix(-0.8392 1.1536 -1.6186 -1.3126 -1736.9318 -3583.3691)" gradientUnits="userSpaceOnUse">
			<stop  offset="0" style="stop-color:#FFFFFF"/>
			<stop  offset="1" style="stop-color:#FFFFFF;stop-opacity:0"/>
		</radialGradient>
		<path class="st12" d="M259.14,107.33c-6.25-5.07-8.69-12.79-5.45-17.25c3.24-4.45,10.94-3.95,17.19,1.11
			c6.25,5.07,8.69,12.8,5.45,17.25C273.08,112.9,265.39,112.4,259.14,107.33z"/>
		
			<radialGradient id="SVGID_14_" cx="193.8427" cy="113.3286" r="5.1134" gradientTransform="matrix(0.901 -0.4338 1.2628 2.6229 -123.9204 -99.8375)" gradientUnits="userSpaceOnUse">
			<stop  offset="0" style="stop-color:#FFFFFF"/>
			<stop  offset="1" style="stop-color:#FFFFFF;stop-opacity:0"/>
		</radialGradient>
		<path class="st13" d="M197.47,108.04c-4.61-7.19-9.97-10.65-11.98-7.73c-2,2.91,0.12,11.11,4.72,18.31
			c4.62,7.19,9.97,10.66,11.98,7.74C204.19,123.43,202.08,115.23,197.47,108.04z"/>
	</g>
	<g>
		<g>
			
				<radialGradient id="SVGID_15_" cx="-159.5402" cy="182.6927" r="25.435" gradientTransform="matrix(0.866 0.5 -0.5 0.866 299.3368 173.8295)" gradientUnits="userSpaceOnUse">
				<stop  offset="0" style="stop-color:#D1ECFA"/>
				<stop  offset="0.198" style="stop-color:#D6EEFB"/>
				<stop  offset="1" style="stop-color:#88BAE5"/>
			</radialGradient>
			<path class="st14" d="M83.98,254.68c-2.92,5.06-9.38,6.79-14.44,3.87c-5.06-2.92-6.79-9.38-3.87-14.44
				c2.92-5.06,20.98-15.19,20.98-15.19S86.9,249.62,83.98,254.68z"/>
			
				<radialGradient id="SVGID_16_" cx="1354.7089" cy="-1676.9951" r="3.9839" gradientTransform="matrix(-1.3036 0.5794 -0.7454 -1.946 587.1381 -3797.7371)" gradientUnits="userSpaceOnUse">
				<stop  offset="0" style="stop-color:#FFFFFF"/>
				<stop  offset="1" style="stop-color:#FFFFFF;stop-opacity:0"/>
			</radialGradient>
			<path class="st15" d="M65.98,252.92c-1.64-4.28-0.65-8.78,2.22-10.06c2.87-1.28,6.52,1.16,8.16,5.44
				c1.64,4.28,0.64,8.79-2.22,10.06C71.27,259.64,67.62,257.21,65.98,252.92z"/>
		</g>
		<g>
			
				<radialGradient id="SVGID_17_" cx="-121.2506" cy="160.5862" r="25.4352" gradientTransform="matrix(0.866 0.5 -0.5 0.866 299.3368 173.8295)" gradientUnits="userSpaceOnUse">
				<stop  offset="0" style="stop-color:#D1ECFA"/>
				<stop  offset="0.198" style="stop-color:#D6EEFB"/>
				<stop  offset="1" style="stop-color:#88BAE5"/>
			</radialGradient>
			<path class="st16" d="M128.19,254.68c-2.92,5.06-9.38,6.79-14.44,3.87c-5.06-2.92-6.79-9.38-3.87-14.44
				c2.92-5.06,20.97-15.19,20.97-15.19S131.11,249.62,128.19,254.68z"/>
			
				<radialGradient id="SVGID_18_" cx="1325.7272" cy="-1685.624" r="3.9839" gradientTransform="matrix(-1.3036 0.5794 -0.7454 -1.946 587.1381 -3797.7371)" gradientUnits="userSpaceOnUse">
				<stop  offset="0" style="stop-color:#FFFFFF"/>
				<stop  offset="1" style="stop-color:#FFFFFF;stop-opacity:0"/>
			</radialGradient>
			<path class="st17" d="M110.19,252.92c-1.64-4.28-0.65-8.78,2.22-10.06c2.87-1.28,6.52,1.16,8.16,5.44
				c1.64,4.28,0.64,8.79-2.22,10.06C115.48,259.64,111.83,257.21,110.19,252.92z"/>
		</g>
		<g>
			
				<radialGradient id="SVGID_19_" cx="-82.9605" cy="138.4783" r="25.4361" gradientTransform="matrix(0.866 0.5 -0.5 0.866 299.3368 173.8295)" gradientUnits="userSpaceOnUse">
				<stop  offset="0" style="stop-color:#D1ECFA"/>
				<stop  offset="0.198" style="stop-color:#D6EEFB"/>
				<stop  offset="1" style="stop-color:#88BAE5"/>
			</radialGradient>
			<path class="st18" d="M172.41,254.68c-2.92,5.06-9.38,6.79-14.44,3.87c-5.06-2.92-6.79-9.38-3.87-14.44
				c2.92-5.06,20.98-15.19,20.98-15.19S175.33,249.62,172.41,254.68z"/>
			
				<radialGradient id="SVGID_20_" cx="1296.7456" cy="-1694.2531" r="3.984" gradientTransform="matrix(-1.3036 0.5794 -0.7454 -1.946 587.1381 -3797.7371)" gradientUnits="userSpaceOnUse">
				<stop  offset="0" style="stop-color:#FFFFFF"/>
				<stop  offset="1" style="stop-color:#FFFFFF;stop-opacity:0"/>
			</radialGradient>
			<path class="st19" d="M154.4,252.92c-1.64-4.28-0.64-8.78,2.23-10.06c2.87-1.28,6.52,1.16,8.16,5.44
				c1.64,4.28,0.64,8.79-2.22,10.06C159.7,259.64,156.04,257.21,154.4,252.92z"/>
		</g>
		<g>
			
				<radialGradient id="SVGID_21_" cx="-44.6711" cy="116.3716" r="25.435" gradientTransform="matrix(0.866 0.5 -0.5 0.866 299.3368 173.8295)" gradientUnits="userSpaceOnUse">
				<stop  offset="0" style="stop-color:#D1ECFA"/>
				<stop  offset="0.198" style="stop-color:#D6EEFB"/>
				<stop  offset="1" style="stop-color:#88BAE5"/>
			</radialGradient>
			<path class="st20" d="M216.62,254.68c-2.92,5.06-9.38,6.79-14.44,3.87c-5.06-2.92-6.79-9.38-3.87-14.44
				c2.92-5.06,20.98-15.19,20.98-15.19S219.54,249.62,216.62,254.68z"/>
			
				<radialGradient id="SVGID_22_" cx="1267.7639" cy="-1702.8818" r="3.9839" gradientTransform="matrix(-1.3036 0.5794 -0.7454 -1.946 587.1381 -3797.7371)" gradientUnits="userSpaceOnUse">
				<stop  offset="0" style="stop-color:#FFFFFF"/>
				<stop  offset="1" style="stop-color:#FFFFFF;stop-opacity:0"/>
			</radialGradient>
			<path class="st21" d="M198.62,252.92c-1.64-4.28-0.65-8.78,2.22-10.06c2.87-1.28,6.52,1.16,8.16,5.44
				c1.64,4.28,0.64,8.79-2.23,10.06C203.91,259.64,200.25,257.21,198.62,252.92z"/>
		</g>
	</g>
</g>
</svg>
