<?xml version="1.0" encoding="utf-8"?>
<!-- Generator: Adobe Illustrator 25.0.0, SVG Export Plug-In . SVG Version: 6.00 Build 0)  -->
<svg version="1.1" id="Layer_1" xmlns="http://www.w3.org/2000/svg" xmlns:xlink="http://www.w3.org/1999/xlink" x="0px" y="0px"
	 viewBox="0 0 122 94" style="enable-background:new 0 0 122 94;" xml:space="preserve">
<style type="text/css">
	.st0{fill:url(#SVGID_1_);}
	.st1{fill:url(#SVGID_2_);}
	.st2{fill:url(#SVGID_3_);}
	.st3{opacity:0.4;fill:url(#SVGID_4_);}
	.st4{fill:url(#SVGID_5_);}
	.st5{fill:url(#SVGID_6_);}
	.st6{fill:url(#SVGID_7_);}
	.st7{opacity:0.4;fill:url(#SVGID_8_);}
	.st8{opacity:0.2;fill:url(#SVGID_9_);}
	.st9{fill:url(#SVGID_10_);}
	.st10{fill:url(#SVGID_11_);}
	.st11{fill:url(#SVGID_12_);}
	.st12{fill:url(#SVGID_13_);}
	.st13{fill:url(#SVGID_14_);}
	.st14{fill:url(#SVGID_15_);}
	.st15{fill:url(#SVGID_16_);}
	.st16{fill:url(#SVGID_17_);}
</style>
<g>
	<g>
		<linearGradient id="SVGID_1_" gradientUnits="userSpaceOnUse" x1="111.0057" y1="-0.4667" x2="54.3849" y2="62.8053">
			<stop  offset="0" style="stop-color:#FBB92C"/>
			<stop  offset="1" style="stop-color:#EA571C"/>
		</linearGradient>
		<polygon class="st0" points="107.01,52.3 99.9,52.76 98.56,59.66 91.73,57.7 88.08,63.73 82.34,59.57 76.82,64.01 72.86,58.17 
			66.13,60.48 64.44,53.65 57.32,53.55 58.1,46.57 51.44,44.07 54.59,37.77 49.2,33.17 54.34,28.32 50.87,22.18 57.39,19.35 
			56.26,12.42 63.36,11.96 64.7,5.06 71.54,7.02 75.19,0.99 80.93,5.14 86.45,0.7 90.41,6.54 97.13,4.24 98.82,11.06 105.94,11.16 
			105.17,18.15 111.82,20.65 108.68,26.95 114.06,31.54 108.92,36.4 112.39,42.53 105.87,45.36 		"/>
		
			<radialGradient id="SVGID_2_" cx="-139.4533" cy="16.4707" r="45.5994" gradientTransform="matrix(-1 0 0 0.9867 -52.3271 1.2469)" gradientUnits="userSpaceOnUse">
			<stop  offset="0" style="stop-color:#FFF4C3"/>
			<stop  offset="0.1559" style="stop-color:#FFE036"/>
			<stop  offset="1" style="stop-color:#EE7525"/>
		</radialGradient>
		<path class="st1" d="M57.61,32.36c0,13.09,10.75,23.7,24.02,23.7c13.27,0,24.02-10.61,24.02-23.7c0-13.09-10.75-23.7-24.02-23.7
			C68.37,8.66,57.61,19.27,57.61,32.36z"/>
		<g>
			
				<radialGradient id="SVGID_3_" cx="1092.0023" cy="-1882.5645" r="6.8446" gradientTransform="matrix(-0.8392 1.1382 -1.6186 -1.2951 -2039.674 -3658.8811)" gradientUnits="userSpaceOnUse">
				<stop  offset="0" style="stop-color:#FFFFFF"/>
				<stop  offset="1" style="stop-color:#FFFFFF;stop-opacity:0"/>
			</radialGradient>
			<path class="st2" d="M85.29,29.92c-6.12-4.9-8.51-12.35-5.34-16.65c3.17-4.3,10.71-3.82,16.83,1.07
				c6.12,4.9,8.5,12.35,5.33,16.65C98.94,35.3,91.41,34.81,85.29,29.92z"/>
			
				<radialGradient id="SVGID_4_" cx="-2985.8567" cy="2955.1843" r="6.6048" gradientTransform="matrix(-1.1717 -1.086 0.222 -0.7186 -4086.4375 -1074.3689)" gradientUnits="userSpaceOnUse">
				<stop  offset="0" style="stop-color:#FFFFFF"/>
				<stop  offset="1" style="stop-color:#FFFFFF;stop-opacity:0"/>
			</radialGradient>
			<path class="st3" d="M60.4,37.6c0.81-2.62,4.93-1.54,9.21,2.43c4.27,3.96,7.08,9.3,6.27,11.92c-0.81,2.62-4.93,1.54-9.21-2.43
				C62.4,45.55,59.59,40.21,60.4,37.6z"/>
		</g>
	</g>
	<g>
		
			<radialGradient id="SVGID_5_" cx="64.9026" cy="27.4364" r="70.2573" gradientTransform="matrix(-1 0 0 -0.7207 129.8051 48.0917)" gradientUnits="userSpaceOnUse">
			<stop  offset="0" style="stop-color:#FFFFFF"/>
			<stop  offset="0.198" style="stop-color:#D6EEFB"/>
			<stop  offset="1" style="stop-color:#88BAE5"/>
		</radialGradient>
		<path class="st4" d="M80.23,39.53c-0.96-13.86-12.65-24.81-26.94-24.81c-14.29,0-25.98,10.95-26.94,24.81
			C15.7,40.06,7.23,48.73,7.23,59.36c0,10.97,9.01,19.86,20.12,19.86h51.86c11.11,0,20.12-8.89,20.12-19.86
			C99.34,48.73,90.87,40.06,80.23,39.53z"/>
		
			<radialGradient id="SVGID_6_" cx="73.9491" cy="31.4306" r="61.7034" gradientTransform="matrix(1 0 0 0.9867 0 1.2469)" gradientUnits="userSpaceOnUse">
			<stop  offset="0" style="stop-color:#FFE036"/>
			<stop  offset="0.1112" style="stop-color:#FBC832;stop-opacity:0.8554"/>
			<stop  offset="0.2463" style="stop-color:#F7AC2D;stop-opacity:0.6796"/>
			<stop  offset="0.3813" style="stop-color:#F39529;stop-opacity:0.504"/>
			<stop  offset="0.5144" style="stop-color:#F08427;stop-opacity:0.3309"/>
			<stop  offset="0.6447" style="stop-color:#EF7925;stop-opacity:0.1615"/>
			<stop  offset="0.7688" style="stop-color:#EE7525;stop-opacity:0"/>
		</radialGradient>
		<path class="st5" d="M80.23,39.53c-0.96-13.86-12.65-24.81-26.94-24.81c-14.29,0-25.98,10.95-26.94,24.81
			C15.7,40.06,7.23,48.73,7.23,59.36c0,10.97,9.01,19.86,20.12,19.86h51.86c11.11,0,20.12-8.89,20.12-19.86
			C99.34,48.73,90.87,40.06,80.23,39.53z"/>
		
			<radialGradient id="SVGID_7_" cx="1111.199" cy="-1873.5912" r="8.4764" gradientTransform="matrix(-0.8392 1.1382 -1.6186 -1.2951 -2039.674 -3658.8811)" gradientUnits="userSpaceOnUse">
			<stop  offset="0" style="stop-color:#FFFFFF"/>
			<stop  offset="1" style="stop-color:#FFFFFF;stop-opacity:0"/>
		</radialGradient>
		<path class="st6" d="M53.29,42.01c-7.58-6.06-10.53-15.3-6.61-20.63c3.93-5.33,13.26-4.73,20.83,1.33
			c7.57,6.06,10.53,15.3,6.6,20.63C70.19,48.67,60.86,48.07,53.29,42.01z"/>
		
			<radialGradient id="SVGID_8_" cx="1110.9436" cy="-1889.2491" r="6.6615" gradientTransform="matrix(-0.8392 1.1382 -1.6186 -1.2951 -2039.674 -3658.8811)" gradientUnits="userSpaceOnUse">
			<stop  offset="0" style="stop-color:#FFFFFF"/>
			<stop  offset="1" style="stop-color:#FFFFFF;stop-opacity:0"/>
		</radialGradient>
		<path class="st7" d="M80.37,59.93c-5.95-4.77-8.28-12.02-5.19-16.21c3.09-4.19,10.42-3.72,16.37,1.04
			c5.95,4.77,8.27,12.02,5.19,16.21C93.65,65.16,86.32,64.69,80.37,59.93z"/>
		
			<radialGradient id="SVGID_9_" cx="18.1677" cy="65.1853" r="4.871" gradientTransform="matrix(0.901 -0.428 1.2628 2.5879 -80.5155 -95.3563)" gradientUnits="userSpaceOnUse">
			<stop  offset="0" style="stop-color:#FFFFFF"/>
			<stop  offset="1" style="stop-color:#FFFFFF;stop-opacity:0"/>
		</radialGradient>
		<path class="st8" d="M21.62,60.59c-4.39-6.76-9.5-10.02-11.41-7.27c-1.9,2.74,0.11,10.45,4.5,17.21c4.4,6.76,9.5,10.02,11.41,7.28
			C28.03,75.06,26.01,67.36,21.62,60.59z"/>
	</g>
	<g>
		<g>
			
				<radialGradient id="SVGID_10_" cx="-242.3522" cy="11.5864" r="9.8909" gradientTransform="matrix(0.866 0.4933 -0.5 0.8544 240.9828 200.1565)" gradientUnits="userSpaceOnUse">
				<stop  offset="0" style="stop-color:#D1ECFA"/>
				<stop  offset="0.198" style="stop-color:#D6EEFB"/>
				<stop  offset="1" style="stop-color:#88BAE5"/>
			</radialGradient>
			<path class="st9" d="M30.82,91.42c-1.14,1.94-3.65,2.61-5.62,1.48c-1.97-1.12-2.64-3.6-1.5-5.54c1.14-1.94,8.16-5.83,8.16-5.83
				S31.95,89.48,30.82,91.42z"/>
			
				<radialGradient id="SVGID_11_" cx="1233.8099" cy="-1750.0615" r="1.5494" gradientTransform="matrix(-1.3036 0.5717 -0.7454 -1.92 329.7335 -3975.6484)" gradientUnits="userSpaceOnUse">
				<stop  offset="0" style="stop-color:#FFFFFF"/>
				<stop  offset="1" style="stop-color:#FFFFFF;stop-opacity:0"/>
			</radialGradient>
			<path class="st10" d="M23.82,90.75c-0.64-1.64-0.25-3.37,0.87-3.86c1.12-0.49,2.54,0.45,3.17,2.09c0.64,1.64,0.25,3.37-0.87,3.86
				C25.87,93.33,24.45,92.39,23.82,90.75z"/>
		</g>
		<g>
			
				<radialGradient id="SVGID_12_" cx="-227.4627" cy="2.9896" r="9.8913" gradientTransform="matrix(0.866 0.4933 -0.5 0.8544 240.9828 200.1565)" gradientUnits="userSpaceOnUse">
				<stop  offset="0" style="stop-color:#D1ECFA"/>
				<stop  offset="0.198" style="stop-color:#D6EEFB"/>
				<stop  offset="1" style="stop-color:#88BAE5"/>
			</radialGradient>
			<path class="st11" d="M48.01,91.42c-1.14,1.94-3.65,2.61-5.62,1.48c-1.97-1.12-2.64-3.6-1.5-5.54c1.14-1.94,8.16-5.83,8.16-5.83
				S49.14,89.48,48.01,91.42z"/>
			
				<radialGradient id="SVGID_13_" cx="1222.5402" cy="-1753.417" r="1.5495" gradientTransform="matrix(-1.3036 0.5717 -0.7454 -1.92 329.7335 -3975.6484)" gradientUnits="userSpaceOnUse">
				<stop  offset="0" style="stop-color:#FFFFFF"/>
				<stop  offset="1" style="stop-color:#FFFFFF;stop-opacity:0"/>
			</radialGradient>
			<path class="st12" d="M41.01,90.75c-0.64-1.64-0.25-3.37,0.87-3.86c1.12-0.49,2.54,0.45,3.17,2.09c0.64,1.64,0.25,3.37-0.86,3.86
				C43.07,93.33,41.65,92.39,41.01,90.75z"/>
		</g>
		<g>
			
				<radialGradient id="SVGID_14_" cx="-212.5728" cy="-5.6072" r="9.8909" gradientTransform="matrix(0.866 0.4933 -0.5 0.8544 240.9828 200.1565)" gradientUnits="userSpaceOnUse">
				<stop  offset="0" style="stop-color:#D1ECFA"/>
				<stop  offset="0.198" style="stop-color:#D6EEFB"/>
				<stop  offset="1" style="stop-color:#88BAE5"/>
			</radialGradient>
			<path class="st13" d="M65.2,91.42c-1.14,1.94-3.65,2.61-5.62,1.48c-1.97-1.12-2.64-3.6-1.5-5.54c1.14-1.94,8.16-5.83,8.16-5.83
				S66.34,89.48,65.2,91.42z"/>
			
				<radialGradient id="SVGID_15_" cx="1211.2698" cy="-1756.7726" r="1.5495" gradientTransform="matrix(-1.3036 0.5717 -0.7454 -1.92 329.7335 -3975.6484)" gradientUnits="userSpaceOnUse">
				<stop  offset="0" style="stop-color:#FFFFFF"/>
				<stop  offset="1" style="stop-color:#FFFFFF;stop-opacity:0"/>
			</radialGradient>
			<path class="st14" d="M58.2,90.75c-0.64-1.64-0.25-3.37,0.87-3.86c1.12-0.49,2.54,0.45,3.17,2.09c0.64,1.64,0.25,3.37-0.86,3.86
				C60.26,93.33,58.84,92.39,58.2,90.75z"/>
		</g>
		<g>
			
				<radialGradient id="SVGID_16_" cx="-197.6831" cy="-14.204" r="9.8909" gradientTransform="matrix(0.866 0.4933 -0.5 0.8544 240.9828 200.1565)" gradientUnits="userSpaceOnUse">
				<stop  offset="0" style="stop-color:#D1ECFA"/>
				<stop  offset="0.198" style="stop-color:#D6EEFB"/>
				<stop  offset="1" style="stop-color:#88BAE5"/>
			</radialGradient>
			<path class="st15" d="M82.39,91.42c-1.14,1.94-3.65,2.61-5.62,1.48c-1.97-1.12-2.64-3.6-1.5-5.54c1.14-1.94,8.16-5.83,8.16-5.83
				S83.53,89.48,82.39,91.42z"/>
			
				<radialGradient id="SVGID_17_" cx="1199.9999" cy="-1760.1282" r="1.5495" gradientTransform="matrix(-1.3036 0.5717 -0.7454 -1.92 329.7335 -3975.6484)" gradientUnits="userSpaceOnUse">
				<stop  offset="0" style="stop-color:#FFFFFF"/>
				<stop  offset="1" style="stop-color:#FFFFFF;stop-opacity:0"/>
			</radialGradient>
			<path class="st16" d="M75.39,90.75c-0.64-1.64-0.25-3.37,0.87-3.86c1.12-0.49,2.54,0.45,3.17,2.09c0.64,1.64,0.25,3.37-0.87,3.86
				C77.45,93.33,76.03,92.39,75.39,90.75z"/>
		</g>
	</g>
</g>
</svg>
