<?xml version="1.0" encoding="utf-8"?>
<!-- Generator: Adobe Illustrator 25.0.0, SVG Export Plug-In . SVG Version: 6.00 Build 0)  -->
<svg version="1.1" id="Layer_1" xmlns="http://www.w3.org/2000/svg" xmlns:xlink="http://www.w3.org/1999/xlink" x="0px" y="0px"
	 viewBox="0 0 122 94" style="enable-background:new 0 0 122 94;" xml:space="preserve">
<style type="text/css">
	.st0{fill:url(#SVGID_1_);}
	.st1{fill:url(#SVGID_2_);}
	.st2{opacity:0.4;fill:url(#SVGID_3_);}
	.st3{opacity:0.2;fill:url(#SVGID_4_);}
	.st4{fill:url(#SVGID_5_);}
	.st5{fill:url(#SVGID_6_);}
	.st6{opacity:0.4;fill:url(#SVGID_7_);}
	.st7{opacity:0.2;fill:url(#SVGID_8_);}
	.st8{fill:url(#SVGID_9_);}
	.st9{fill:url(#SVGID_10_);}
	.st10{opacity:0.4;fill:url(#SVGID_11_);}
	.st11{opacity:0.2;fill:url(#SVGID_12_);}
</style>
<g>
	<g>
		<g>
			
				<radialGradient id="SVGID_1_" cx="36.529" cy="21.8968" r="44.7272" gradientTransform="matrix(-0.9947 0 0 -0.7305 73.3117 37.8922)" gradientUnits="userSpaceOnUse">
				<stop  offset="0" style="stop-color:#FFFFFF"/>
				<stop  offset="0.198" style="stop-color:#B8E2F6"/>
				<stop  offset="1" style="stop-color:#70A8DB"/>
			</radialGradient>
			<path class="st0" d="M46.68,29.14c-0.61-8.94-8.01-16.01-17.06-16.01c-9.05,0-16.45,7.07-17.06,16.01
				c-6.74,0.33-12.1,5.94-12.1,12.79c0,7.07,5.7,12.81,12.74,12.81h32.84c7.04,0,12.74-5.74,12.74-12.81
				C58.79,35.07,53.42,29.47,46.68,29.14z"/>
			
				<radialGradient id="SVGID_2_" cx="1119.1891" cy="-1861.215" r="5.3962" gradientTransform="matrix(-0.8348 1.1536 -1.6101 -1.3126 -2028.2819 -3709.6245)" gradientUnits="userSpaceOnUse">
				<stop  offset="0" style="stop-color:#FFFFFF"/>
				<stop  offset="1" style="stop-color:#FFFFFF;stop-opacity:0"/>
			</radialGradient>
			<path class="st1" d="M29.62,30.73c-4.8-3.91-6.67-9.87-4.18-13.31c2.49-3.44,8.4-3.05,13.19,0.86c4.8,3.91,6.67,9.87,4.18,13.31
				C40.32,35.03,34.42,34.64,29.62,30.73z"/>
			
				<radialGradient id="SVGID_3_" cx="1119.0276" cy="-1871.1832" r="4.2411" gradientTransform="matrix(-0.8348 1.1536 -1.6101 -1.3126 -2028.2819 -3709.6245)" gradientUnits="userSpaceOnUse">
				<stop  offset="0" style="stop-color:#FFFFFF"/>
				<stop  offset="1" style="stop-color:#FFFFFF;stop-opacity:0"/>
			</radialGradient>
			<path class="st2" d="M46.77,42.29c-3.77-3.08-5.24-7.76-3.29-10.46c1.96-2.7,6.6-2.4,10.37,0.67c3.77,3.07,5.24,7.76,3.29,10.46
				C55.18,45.67,50.54,45.37,46.77,42.29z"/>
			
				<radialGradient id="SVGID_4_" cx="6.7766" cy="45.9287" r="3.1011" gradientTransform="matrix(0.8963 -0.4338 1.2561 2.6229 -56.3853 -71.5989)" gradientUnits="userSpaceOnUse">
				<stop  offset="0" style="stop-color:#FFFFFF"/>
				<stop  offset="1" style="stop-color:#FFFFFF;stop-opacity:0"/>
			</radialGradient>
			<path class="st3" d="M9.57,42.72c-2.78-4.36-6.01-6.46-7.22-4.69c-1.21,1.77,0.07,6.74,2.85,11.11c2.78,4.36,6.02,6.46,7.22,4.7
				C13.62,52.06,12.35,47.09,9.57,42.72z"/>
		</g>
		<g>
			
				<radialGradient id="SVGID_5_" cx="99.2455" cy="21.8968" r="44.7271" gradientTransform="matrix(-0.9947 0 0 -0.7305 198.0833 37.8922)" gradientUnits="userSpaceOnUse">
				<stop  offset="0" style="stop-color:#FFFFFF"/>
				<stop  offset="0.198" style="stop-color:#B8E2F6"/>
				<stop  offset="1" style="stop-color:#70A8DB"/>
			</radialGradient>
			<path class="st4" d="M109.07,29.14c-0.61-8.94-8.01-16.01-17.06-16.01c-9.05,0-16.45,7.07-17.06,16.01
				c-6.74,0.33-12.1,5.94-12.1,12.79c0,7.07,5.7,12.81,12.74,12.81h32.84c7.04,0,12.74-5.74,12.74-12.81
				C121.17,35.07,115.81,29.47,109.07,29.14z"/>
			
				<radialGradient id="SVGID_6_" cx="1091.4597" cy="-1885.5853" r="5.3961" gradientTransform="matrix(-0.8348 1.1536 -1.6101 -1.3126 -2028.2819 -3709.6245)" gradientUnits="userSpaceOnUse">
				<stop  offset="0" style="stop-color:#FFFFFF"/>
				<stop  offset="1" style="stop-color:#FFFFFF;stop-opacity:0"/>
			</radialGradient>
			<path class="st5" d="M92.01,30.73c-4.8-3.91-6.67-9.87-4.18-13.31c2.49-3.44,8.4-3.05,13.19,0.86c4.8,3.91,6.67,9.87,4.18,13.31
				C102.71,35.03,96.8,34.64,92.01,30.73z"/>
			
				<radialGradient id="SVGID_7_" cx="1091.298" cy="-1895.5538" r="4.2411" gradientTransform="matrix(-0.8348 1.1536 -1.6101 -1.3126 -2028.2819 -3709.6245)" gradientUnits="userSpaceOnUse">
				<stop  offset="0" style="stop-color:#FFFFFF"/>
				<stop  offset="1" style="stop-color:#FFFFFF;stop-opacity:0"/>
			</radialGradient>
			<path class="st6" d="M109.16,42.29c-3.77-3.08-5.24-7.76-3.29-10.46c1.96-2.7,6.6-2.4,10.37,0.67c3.77,3.07,5.24,7.76,3.29,10.46
				C117.57,45.67,112.93,45.37,109.16,42.29z"/>
			
				<radialGradient id="SVGID_8_" cx="69.4931" cy="45.9287" r="3.1011" gradientTransform="matrix(0.8963 -0.4338 1.2561 2.6229 -50.2102 -44.3936)" gradientUnits="userSpaceOnUse">
				<stop  offset="0" style="stop-color:#FFFFFF"/>
				<stop  offset="1" style="stop-color:#FFFFFF;stop-opacity:0"/>
			</radialGradient>
			<path class="st7" d="M71.95,42.72c-2.78-4.36-6.01-6.46-7.22-4.69c-1.21,1.77,0.07,6.74,2.85,11.11c2.78,4.36,6.02,6.46,7.22,4.7
				C76.01,52.06,74.73,47.09,71.95,42.72z"/>
		</g>
	</g>
	<g>
		
			<radialGradient id="SVGID_9_" cx="69.4232" cy="39.6543" r="54.0182" gradientTransform="matrix(-0.9947 0 0 -0.7305 138.7532 68.6213)" gradientUnits="userSpaceOnUse">
			<stop  offset="0" style="stop-color:#FFFFFF"/>
			<stop  offset="0.198" style="stop-color:#D6EEFB"/>
			<stop  offset="1" style="stop-color:#88BAE5"/>
		</radialGradient>
		<path class="st8" d="M81.42,48.4c-0.73-10.8-9.68-19.34-20.61-19.34c-10.93,0-19.87,8.53-20.6,19.34
			c-8.14,0.4-14.62,7.17-14.62,15.45c0,8.54,6.89,15.47,15.39,15.47h39.67c8.5,0,15.39-6.93,15.39-15.47
			C96.04,55.57,89.56,48.8,81.42,48.4z"/>
		
			<radialGradient id="SVGID_10_" cx="1114.886" cy="-1878.9386" r="6.517" gradientTransform="matrix(-0.8348 1.1536 -1.6101 -1.3126 -2028.2819 -3709.6245)" gradientUnits="userSpaceOnUse">
			<stop  offset="0" style="stop-color:#FFFFFF"/>
			<stop  offset="1" style="stop-color:#FFFFFF;stop-opacity:0"/>
		</radialGradient>
		<path class="st9" d="M60.81,50.32c-5.79-4.73-8.06-11.92-5.05-16.07c3.01-4.15,10.14-3.69,15.94,1.04
			c5.79,4.72,8.05,11.92,5.05,16.07C73.74,55.51,66.61,55.04,60.81,50.32z"/>
		
			<radialGradient id="SVGID_11_" cx="1114.6895" cy="-1890.9779" r="5.1217" gradientTransform="matrix(-0.8348 1.1536 -1.6101 -1.3126 -2028.2819 -3709.6245)" gradientUnits="userSpaceOnUse">
			<stop  offset="0" style="stop-color:#FFFFFF"/>
			<stop  offset="1" style="stop-color:#FFFFFF;stop-opacity:0"/>
		</radialGradient>
		<path class="st10" d="M81.53,64.29c-4.55-3.71-6.33-9.37-3.97-12.63c2.36-3.26,7.97-2.9,12.52,0.81
			c4.55,3.71,6.33,9.37,3.97,12.63C91.69,68.37,86.08,68,81.53,64.29z"/>
		
			<radialGradient id="SVGID_12_" cx="33.4905" cy="68.6791" r="3.7453" gradientTransform="matrix(0.8963 -0.4338 1.2561 2.6229 -82.332 -96.9329)" gradientUnits="userSpaceOnUse">
			<stop  offset="0" style="stop-color:#FFFFFF"/>
			<stop  offset="1" style="stop-color:#FFFFFF;stop-opacity:0"/>
		</radialGradient>
		<path class="st11" d="M36.59,64.81c-3.36-5.27-7.26-7.8-8.72-5.67c-1.46,2.13,0.08,8.14,3.44,13.41c3.36,5.27,7.27,7.81,8.72,5.67
			C41.49,76.08,39.95,70.08,36.59,64.81z"/>
	</g>
</g>
</svg>
