<?xml version="1.0" encoding="utf-8"?>
<!-- Generator: Adobe Illustrator 25.0.0, SVG Export Plug-In . SVG Version: 6.00 Build 0)  -->
<svg version="1.1" id="Layer_1" xmlns="http://www.w3.org/2000/svg" xmlns:xlink="http://www.w3.org/1999/xlink" x="0px" y="0px"
	 viewBox="0 0 122 94" style="enable-background:new 0 0 122 94;" xml:space="preserve">
<style type="text/css">
	.st0{fill:url(#SVGID_1_);}
	.st1{fill:url(#SVGID_2_);}
	.st2{opacity:0.4;fill:url(#SVGID_3_);}
	.st3{opacity:0.2;fill:url(#SVGID_4_);}
	.st4{fill:url(#SVGID_5_);}
	.st5{fill:url(#SVGID_6_);}
	.st6{fill:url(#SVGID_7_);}
	.st7{fill:url(#SVGID_8_);}
	.st8{fill:url(#SVGID_9_);}
	.st9{fill:url(#SVGID_10_);}
	.st10{fill:url(#SVGID_11_);}
	.st11{fill:url(#SVGID_12_);}
	.st12{fill:url(#SVGID_13_);}
	.st13{fill:url(#SVGID_14_);}
	.st14{fill:url(#SVGID_15_);}
	.st15{fill:url(#SVGID_16_);}
	.st16{fill:url(#SVGID_17_);}
	.st17{fill:url(#SVGID_18_);}
</style>
<g>
	<g>
		
			<radialGradient id="SVGID_1_" cx="72.0202" cy="13.1098" r="70.2558" gradientTransform="matrix(-1 0 0 -0.7199 144.0404 23.718)" gradientUnits="userSpaceOnUse">
			<stop  offset="0" style="stop-color:#FFFFFF"/>
			<stop  offset="0.198" style="stop-color:#D6EEFB"/>
			<stop  offset="1" style="stop-color:#88BAE5"/>
		</radialGradient>
		<path class="st0" d="M87.35,25.48C86.39,11.64,74.7,0.7,60.41,0.7c-14.29,0-25.98,10.94-26.94,24.78
			C22.82,26,14.35,34.67,14.35,45.29c0,10.95,9.01,19.83,20.12,19.83h51.86c11.11,0,20.12-8.88,20.12-19.83
			C106.46,34.67,97.99,26,87.35,25.48z"/>
		
			<radialGradient id="SVGID_2_" cx="1100.2405" cy="-1872.307" r="8.476" gradientTransform="matrix(-0.8392 1.1368 -1.6186 -1.2935 -2039.674 -3654.2759)" gradientUnits="userSpaceOnUse">
			<stop  offset="0" style="stop-color:#FFFFFF"/>
			<stop  offset="1" style="stop-color:#FFFFFF;stop-opacity:0"/>
		</radialGradient>
		<path class="st1" d="M60.41,27.95c-7.58-6.06-10.53-15.28-6.61-20.6c3.93-5.32,13.26-4.72,20.84,1.33
			c7.57,6.06,10.53,15.28,6.6,20.6C77.31,34.6,67.98,34,60.41,27.95z"/>
		
			<radialGradient id="SVGID_3_" cx="1099.9857" cy="-1887.9652" r="6.6615" gradientTransform="matrix(-0.8392 1.1368 -1.6186 -1.2935 -2039.674 -3654.2759)" gradientUnits="userSpaceOnUse">
			<stop  offset="0" style="stop-color:#FFFFFF"/>
			<stop  offset="1" style="stop-color:#FFFFFF;stop-opacity:0"/>
		</radialGradient>
		<path class="st2" d="M87.49,45.85c-5.95-4.76-8.28-12.01-5.19-16.19c3.09-4.18,10.42-3.71,16.38,1.04
			c5.95,4.76,8.27,12.01,5.19,16.19C100.77,51.08,93.44,50.61,87.49,45.85z"/>
		
			<radialGradient id="SVGID_4_" cx="25.2855" cy="50.8586" r="4.8709" gradientTransform="matrix(0.901 -0.4275 1.2628 2.5847 -61.7197 -69.1677)" gradientUnits="userSpaceOnUse">
			<stop  offset="0" style="stop-color:#FFFFFF"/>
			<stop  offset="1" style="stop-color:#FFFFFF;stop-opacity:0"/>
		</radialGradient>
		<path class="st3" d="M28.74,46.52c-4.39-6.75-9.5-10-11.41-7.26c-1.9,2.73,0.11,10.43,4.5,17.19c4.4,6.75,9.5,10.01,11.41,7.27
			C35.14,60.96,33.13,53.27,28.74,46.52z"/>
	</g>
	<g>
		<g>
			
				<radialGradient id="SVGID_5_" cx="-243.3514" cy="-4.3797" r="9.8909" gradientTransform="matrix(0.866 0.4927 -0.5 0.8534 240.9828 200.0273)" gradientUnits="userSpaceOnUse">
				<stop  offset="0" style="stop-color:#D1ECFA"/>
				<stop  offset="0.198" style="stop-color:#D6EEFB"/>
				<stop  offset="1" style="stop-color:#88BAE5"/>
			</radialGradient>
			<path class="st4" d="M37.93,77.31c-1.14,1.94-3.65,2.6-5.62,1.48c-1.97-1.12-2.64-3.6-1.5-5.53c1.14-1.94,8.16-5.82,8.16-5.82
				S39.07,75.37,37.93,77.31z"/>
			
				<radialGradient id="SVGID_6_" cx="1225.5466" cy="-1745.1594" r="1.5492" gradientTransform="matrix(-1.3036 0.571 -0.7454 -1.9177 329.7335 -3970.6548)" gradientUnits="userSpaceOnUse">
				<stop  offset="0" style="stop-color:#FFFFFF"/>
				<stop  offset="1" style="stop-color:#FFFFFF;stop-opacity:0"/>
			</radialGradient>
			<path class="st5" d="M30.93,76.63c-0.64-1.64-0.25-3.37,0.87-3.86c1.12-0.49,2.54,0.44,3.17,2.09c0.64,1.64,0.25,3.37-0.86,3.86
				C32.99,79.21,31.57,78.28,30.93,76.63z"/>
		</g>
		<g>
			
				<radialGradient id="SVGID_7_" cx="-228.4617" cy="-12.9763" r="9.8909" gradientTransform="matrix(0.866 0.4927 -0.5 0.8534 240.9828 200.0273)" gradientUnits="userSpaceOnUse">
				<stop  offset="0" style="stop-color:#D1ECFA"/>
				<stop  offset="0.198" style="stop-color:#D6EEFB"/>
				<stop  offset="1" style="stop-color:#88BAE5"/>
			</radialGradient>
			<path class="st6" d="M55.13,77.31c-1.14,1.94-3.65,2.6-5.62,1.48c-1.97-1.12-2.64-3.6-1.5-5.53c1.14-1.94,8.16-5.82,8.16-5.82
				S56.26,75.37,55.13,77.31z"/>
			
				<radialGradient id="SVGID_8_" cx="1214.2766" cy="-1748.5149" r="1.5492" gradientTransform="matrix(-1.3036 0.571 -0.7454 -1.9177 329.7335 -3970.6548)" gradientUnits="userSpaceOnUse">
				<stop  offset="0" style="stop-color:#FFFFFF"/>
				<stop  offset="1" style="stop-color:#FFFFFF;stop-opacity:0"/>
			</radialGradient>
			<path class="st7" d="M48.13,76.63c-0.64-1.64-0.25-3.37,0.87-3.86c1.12-0.49,2.54,0.44,3.17,2.09c0.64,1.64,0.25,3.37-0.87,3.86
				C50.18,79.21,48.76,78.28,48.13,76.63z"/>
		</g>
		<g>
			
				<radialGradient id="SVGID_9_" cx="-213.5719" cy="-21.5734" r="9.8913" gradientTransform="matrix(0.866 0.4927 -0.5 0.8534 240.9828 200.0273)" gradientUnits="userSpaceOnUse">
				<stop  offset="0" style="stop-color:#D1ECFA"/>
				<stop  offset="0.198" style="stop-color:#D6EEFB"/>
				<stop  offset="1" style="stop-color:#88BAE5"/>
			</radialGradient>
			<path class="st8" d="M72.32,77.31c-1.14,1.94-3.65,2.6-5.62,1.48c-1.97-1.12-2.64-3.6-1.5-5.53c1.14-1.94,8.16-5.82,8.16-5.82
				S73.45,75.37,72.32,77.31z"/>
			
				<radialGradient id="SVGID_10_" cx="1203.0065" cy="-1751.8705" r="1.5492" gradientTransform="matrix(-1.3036 0.571 -0.7454 -1.9177 329.7335 -3970.6548)" gradientUnits="userSpaceOnUse">
				<stop  offset="0" style="stop-color:#FFFFFF"/>
				<stop  offset="1" style="stop-color:#FFFFFF;stop-opacity:0"/>
			</radialGradient>
			<path class="st9" d="M65.32,76.63c-0.64-1.64-0.25-3.37,0.87-3.86c1.12-0.49,2.54,0.44,3.17,2.09c0.64,1.64,0.25,3.37-0.86,3.86
				C67.38,79.21,65.96,78.28,65.32,76.63z"/>
		</g>
		<g>
			
				<radialGradient id="SVGID_11_" cx="-198.6823" cy="-30.17" r="9.8909" gradientTransform="matrix(0.866 0.4927 -0.5 0.8534 240.9828 200.0273)" gradientUnits="userSpaceOnUse">
				<stop  offset="0" style="stop-color:#D1ECFA"/>
				<stop  offset="0.198" style="stop-color:#D6EEFB"/>
				<stop  offset="1" style="stop-color:#88BAE5"/>
			</radialGradient>
			<path class="st10" d="M89.51,77.31c-1.14,1.94-3.65,2.6-5.62,1.48c-1.97-1.12-2.64-3.6-1.5-5.53c1.14-1.94,8.16-5.82,8.16-5.82
				S90.65,75.37,89.51,77.31z"/>
			
				<radialGradient id="SVGID_12_" cx="1191.7365" cy="-1755.226" r="1.5492" gradientTransform="matrix(-1.3036 0.571 -0.7454 -1.9177 329.7335 -3970.6548)" gradientUnits="userSpaceOnUse">
				<stop  offset="0" style="stop-color:#FFFFFF"/>
				<stop  offset="1" style="stop-color:#FFFFFF;stop-opacity:0"/>
			</radialGradient>
			<path class="st11" d="M82.51,76.63c-0.64-1.64-0.25-3.37,0.87-3.86c1.12-0.49,2.54,0.44,3.17,2.09c0.64,1.64,0.25,3.37-0.87,3.86
				C84.57,79.21,83.15,78.28,82.51,76.63z"/>
		</g>
	</g>
	<g>
		<g>
			
				<radialGradient id="SVGID_13_" cx="-228.6834" cy="3.8322" r="9.8909" gradientTransform="matrix(0.866 0.4927 -0.5 0.8534 240.9828 200.0273)" gradientUnits="userSpaceOnUse">
				<stop  offset="0" style="stop-color:#D1ECFA"/>
				<stop  offset="0.198" style="stop-color:#D6EEFB"/>
				<stop  offset="1" style="stop-color:#88BAE5"/>
			</radialGradient>
			<path class="st12" d="M46.53,91.54c-1.14,1.94-3.65,2.6-5.62,1.48c-1.97-1.12-2.64-3.6-1.5-5.53c1.13-1.94,8.16-5.82,8.16-5.82
				S47.67,89.6,46.53,91.54z"/>
			
				<radialGradient id="SVGID_14_" cx="1223.5388" cy="-1753.1804" r="1.5492" gradientTransform="matrix(-1.3036 0.571 -0.7454 -1.9177 329.7335 -3970.6548)" gradientUnits="userSpaceOnUse">
				<stop  offset="0" style="stop-color:#FFFFFF"/>
				<stop  offset="1" style="stop-color:#FFFFFF;stop-opacity:0"/>
			</radialGradient>
			<path class="st13" d="M39.53,90.87c-0.64-1.64-0.25-3.37,0.87-3.86c1.11-0.49,2.54,0.44,3.17,2.09c0.64,1.64,0.25,3.37-0.86,3.86
				C41.59,93.44,40.17,92.51,39.53,90.87z"/>
		</g>
		<g>
			
				<radialGradient id="SVGID_15_" cx="-213.7937" cy="-4.7647" r="9.891" gradientTransform="matrix(0.866 0.4927 -0.5 0.8534 240.9828 200.0273)" gradientUnits="userSpaceOnUse">
				<stop  offset="0" style="stop-color:#D1ECFA"/>
				<stop  offset="0.198" style="stop-color:#D6EEFB"/>
				<stop  offset="1" style="stop-color:#88BAE5"/>
			</radialGradient>
			<path class="st14" d="M63.72,91.54c-1.14,1.94-3.65,2.6-5.62,1.48c-1.97-1.12-2.64-3.6-1.5-5.53c1.14-1.94,8.16-5.82,8.16-5.82
				S64.86,89.6,63.72,91.54z"/>
			
				<radialGradient id="SVGID_16_" cx="1212.2684" cy="-1756.536" r="1.5493" gradientTransform="matrix(-1.3036 0.571 -0.7454 -1.9177 329.7335 -3970.6548)" gradientUnits="userSpaceOnUse">
				<stop  offset="0" style="stop-color:#FFFFFF"/>
				<stop  offset="1" style="stop-color:#FFFFFF;stop-opacity:0"/>
			</radialGradient>
			<path class="st15" d="M56.72,90.87c-0.64-1.64-0.25-3.37,0.87-3.86c1.12-0.49,2.54,0.44,3.17,2.09c0.64,1.64,0.25,3.37-0.86,3.86
				C58.78,93.44,57.36,92.51,56.72,90.87z"/>
		</g>
		<g>
			
				<radialGradient id="SVGID_17_" cx="-198.904" cy="-13.3615" r="9.8909" gradientTransform="matrix(0.866 0.4927 -0.5 0.8534 240.9828 200.0273)" gradientUnits="userSpaceOnUse">
				<stop  offset="0" style="stop-color:#D1ECFA"/>
				<stop  offset="0.198" style="stop-color:#D6EEFB"/>
				<stop  offset="1" style="stop-color:#88BAE5"/>
			</radialGradient>
			<path class="st16" d="M80.92,91.54c-1.14,1.94-3.65,2.6-5.62,1.48c-1.97-1.12-2.64-3.6-1.5-5.53c1.14-1.94,8.16-5.82,8.16-5.82
				S82.05,89.6,80.92,91.54z"/>
			
				<radialGradient id="SVGID_18_" cx="1200.9985" cy="-1759.8915" r="1.5493" gradientTransform="matrix(-1.3036 0.571 -0.7454 -1.9177 329.7335 -3970.6548)" gradientUnits="userSpaceOnUse">
				<stop  offset="0" style="stop-color:#FFFFFF"/>
				<stop  offset="1" style="stop-color:#FFFFFF;stop-opacity:0"/>
			</radialGradient>
			<path class="st17" d="M73.91,90.87c-0.64-1.64-0.25-3.37,0.87-3.86c1.12-0.49,2.54,0.44,3.17,2.09c0.64,1.64,0.25,3.37-0.87,3.86
				C75.97,93.44,74.55,92.51,73.91,90.87z"/>
		</g>
	</g>
</g>
</svg>
