<?xml version="1.0" encoding="utf-8"?>
<!-- Generator: Adobe Illustrator 25.0.0, SVG Export Plug-In . SVG Version: 6.00 Build 0)  -->
<svg version="1.1" id="Layer_1" xmlns="http://www.w3.org/2000/svg" xmlns:xlink="http://www.w3.org/1999/xlink" x="0px" y="0px"
	 viewBox="0 0 122 94" style="enable-background:new 0 0 122 94;" xml:space="preserve">
<style type="text/css">
	.st0{fill:url(#SVGID_1_);}
	.st1{fill:url(#SVGID_2_);}
	.st2{opacity:0.6;fill:url(#SVGID_3_);}
	.st3{opacity:0.4;fill:url(#SVGID_4_);}
	.st4{opacity:0.2;fill:url(#SVGID_5_);}
	.st5{fill:url(#SVGID_6_);}
	.st6{fill:url(#SVGID_7_);}
	.st7{fill:url(#SVGID_8_);}
	.st8{fill:url(#SVGID_9_);}
	.st9{fill:url(#SVGID_10_);}
	.st10{fill:url(#SVGID_11_);}
	.st11{fill:url(#SVGID_12_);}
	.st12{fill:url(#SVGID_13_);}
</style>
<g>
	<linearGradient id="SVGID_1_" gradientUnits="userSpaceOnUse" x1="53.6064" y1="92.783" x2="65.0397" y2="56.7803">
		<stop  offset="0.1559" style="stop-color:#FFE036"/>
		<stop  offset="1" style="stop-color:#EE7525"/>
	</linearGradient>
	<path class="st0" d="M66.83,70.55h-0.91h-3.45l7.19-13.86c0.31-0.6,0.56-1.29,0.71-1.98c0.92-4.3-1.84-8.53-6.18-9.45
		c-4.34-0.92-8.6,1.83-9.52,6.13l-4.81,22.39l-0.15,0.69c-0.07,0.32-0.1,0.65-0.1,0.98c0,2.67,2.18,4.83,4.87,4.83h5.32l-2.87,11.88
		c-0.1,0.43,0.05,0.89,0.43,1.17c0.51,0.36,1.21,0.25,1.58-0.25l11.43-15.63c0.52-0.72,0.84-1.6,0.84-2.55
		C71.21,72.49,69.24,70.55,66.83,70.55z"/>
	<g>
		<g>
			
				<radialGradient id="SVGID_2_" cx="72.021" cy="13.5795" r="70.2562" gradientTransform="matrix(-1 0 0 -0.7244 144.0419 24.079)" gradientUnits="userSpaceOnUse">
				<stop  offset="0" style="stop-color:#B6CCD2"/>
				<stop  offset="0.198" style="stop-color:#97B6BE"/>
				<stop  offset="1" style="stop-color:#5C87B4"/>
			</radialGradient>
			<path class="st1" d="M87.35,25.52C86.39,11.59,74.7,0.58,60.41,0.58c-14.29,0-25.98,11.01-26.94,24.94
				c-10.64,0.52-19.11,9.25-19.11,19.93c0,11.02,9.01,19.96,20.12,19.96h51.86c11.11,0,20.12-8.93,20.12-19.96
				C106.46,34.76,97.99,26.04,87.35,25.52z"/>
			
				<radialGradient id="SVGID_3_" cx="1099.6605" cy="-1873.1747" r="8.4762" gradientTransform="matrix(-0.8392 1.144 -1.6186 -1.3017 -2039.674 -3678.1399)" gradientUnits="userSpaceOnUse">
				<stop  offset="0" style="stop-color:#FFFFFF"/>
				<stop  offset="1" style="stop-color:#FFFFFF;stop-opacity:0"/>
			</radialGradient>
			<path class="st2" d="M62.3,28c-7.58-6.1-10.53-15.37-6.61-20.73c3.93-5.36,13.26-4.75,20.84,1.34
				c7.57,6.09,10.53,15.38,6.6,20.73C79.2,34.69,69.87,34.09,62.3,28z"/>
			
				<radialGradient id="SVGID_4_" cx="1100.2418" cy="-1888.0981" r="6.6612" gradientTransform="matrix(-0.8392 1.144 -1.6186 -1.3017 -2039.674 -3678.1399)" gradientUnits="userSpaceOnUse">
				<stop  offset="0" style="stop-color:#FFFFFF"/>
				<stop  offset="1" style="stop-color:#FFFFFF;stop-opacity:0"/>
			</radialGradient>
			<path class="st3" d="M87.49,46.01c-5.95-4.79-8.28-12.08-5.19-16.29c3.09-4.21,10.42-3.74,16.37,1.05
				c5.95,4.79,8.28,12.09,5.19,16.29C100.77,51.27,93.44,50.8,87.49,46.01z"/>
			
				<radialGradient id="SVGID_5_" cx="25.2859" cy="51.3283" r="4.8709" gradientTransform="matrix(0.901 -0.4302 1.2628 2.6012 -62.3128 -70.96)" gradientUnits="userSpaceOnUse">
				<stop  offset="0" style="stop-color:#FFFFFF"/>
				<stop  offset="1" style="stop-color:#FFFFFF;stop-opacity:0"/>
			</radialGradient>
			<path class="st4" d="M28.74,46.68c-4.39-6.8-9.5-10.07-11.41-7.31c-1.9,2.75,0.11,10.5,4.5,17.3c4.4,6.8,9.5,10.07,11.41,7.31
				C35.14,61.22,33.13,53.48,28.74,46.68z"/>
		</g>
	</g>
	<g>
		
			<radialGradient id="SVGID_6_" cx="-243.3253" cy="-3.0161" r="9.8913" gradientTransform="matrix(0.866 0.4959 -0.5 0.8588 240.9828 200.7048)" gradientUnits="userSpaceOnUse">
			<stop  offset="0" style="stop-color:#D1ECFA"/>
			<stop  offset="0.198" style="stop-color:#D6EEFB"/>
			<stop  offset="1" style="stop-color:#88BAE5"/>
		</radialGradient>
		<path class="st5" d="M37.27,78.39c-1.13,1.95-3.65,2.62-5.62,1.49c-1.97-1.13-2.64-3.62-1.51-5.57c1.14-1.95,8.16-5.86,8.16-5.86
			S38.41,76.44,37.27,78.39z"/>
		
			<radialGradient id="SVGID_7_" cx="1226.2784" cy="-1745.5552" r="1.5491" gradientTransform="matrix(-1.3036 0.5746 -0.7454 -1.9299 329.7335 -3996.5332)" gradientUnits="userSpaceOnUse">
			<stop  offset="0" style="stop-color:#FFFFFF"/>
			<stop  offset="1" style="stop-color:#FFFFFF;stop-opacity:0"/>
		</radialGradient>
		<path class="st6" d="M30.27,77.71c-0.64-1.65-0.25-3.39,0.87-3.88c1.12-0.49,2.54,0.45,3.17,2.1c0.64,1.65,0.25,3.39-0.87,3.88
			C32.33,80.3,30.91,79.36,30.27,77.71z"/>
	</g>
	<g>
		
			<radialGradient id="SVGID_8_" cx="-231.5623" cy="4.1016" r="9.8923" gradientTransform="matrix(0.866 0.4959 -0.5 0.8588 240.9828 200.7048)" gradientUnits="userSpaceOnUse">
			<stop  offset="0" style="stop-color:#D1ECFA"/>
			<stop  offset="0.198" style="stop-color:#D6EEFB"/>
			<stop  offset="1" style="stop-color:#88BAE5"/>
		</radialGradient>
		<path class="st7" d="M43.9,90.33c-1.14,1.95-3.65,2.62-5.62,1.49c-1.97-1.13-2.64-3.62-1.5-5.57c1.14-1.95,8.16-5.86,8.16-5.86
			S45.04,88.38,43.9,90.33z"/>
		
			<radialGradient id="SVGID_9_" cx="1224.9581" cy="-1752.1381" r="1.5492" gradientTransform="matrix(-1.3036 0.5746 -0.7454 -1.9299 329.7335 -3996.5332)" gradientUnits="userSpaceOnUse">
			<stop  offset="0" style="stop-color:#FFFFFF"/>
			<stop  offset="1" style="stop-color:#FFFFFF;stop-opacity:0"/>
		</radialGradient>
		<path class="st8" d="M36.9,89.66c-0.64-1.65-0.25-3.39,0.87-3.88c1.12-0.49,2.54,0.45,3.17,2.1c0.64,1.65,0.25,3.39-0.86,3.88
			C38.96,92.25,37.54,91.31,36.9,89.66z"/>
	</g>
	<g>
		
			<radialGradient id="SVGID_10_" cx="-197.4053" cy="-29.5284" r="9.8905" gradientTransform="matrix(0.866 0.4959 -0.5 0.8588 240.9828 200.7048)" gradientUnits="userSpaceOnUse">
			<stop  offset="0" style="stop-color:#D1ECFA"/>
			<stop  offset="0.198" style="stop-color:#D6EEFB"/>
			<stop  offset="1" style="stop-color:#88BAE5"/>
		</radialGradient>
		<path class="st9" d="M90.3,78.39c-1.13,1.95-3.65,2.62-5.62,1.49c-1.97-1.13-2.64-3.62-1.5-5.57c1.13-1.95,8.16-5.86,8.16-5.86
			S91.43,76.44,90.3,78.39z"/>
		
			<radialGradient id="SVGID_11_" cx="1191.5219" cy="-1755.9037" r="1.5491" gradientTransform="matrix(-1.3036 0.5746 -0.7454 -1.9299 329.7335 -3996.5332)" gradientUnits="userSpaceOnUse">
			<stop  offset="0" style="stop-color:#FFFFFF"/>
			<stop  offset="1" style="stop-color:#FFFFFF;stop-opacity:0"/>
		</radialGradient>
		<path class="st10" d="M83.3,77.71c-0.64-1.65-0.25-3.39,0.87-3.88c1.12-0.49,2.54,0.45,3.17,2.1c0.64,1.65,0.25,3.39-0.87,3.88
			C85.35,80.3,83.93,79.36,83.3,77.71z"/>
	</g>
	<g>
		
			<radialGradient id="SVGID_12_" cx="-201.2702" cy="-13.3881" r="9.8913" gradientTransform="matrix(0.866 0.4959 -0.5 0.8588 240.9823 200.7048)" gradientUnits="userSpaceOnUse">
			<stop  offset="0" style="stop-color:#D1ECFA"/>
			<stop  offset="0.198" style="stop-color:#D6EEFB"/>
			<stop  offset="1" style="stop-color:#88BAE5"/>
		</radialGradient>
		<path class="st11" d="M78.88,90.33c-1.13,1.95-3.65,2.62-5.62,1.49c-1.97-1.13-2.64-3.62-1.5-5.57c1.14-1.95,8.16-5.86,8.16-5.86
			S80.01,88.38,78.88,90.33z"/>
		
			<radialGradient id="SVGID_13_" cx="1202.0304" cy="-1758.9644" r="1.5493" gradientTransform="matrix(-1.3036 0.5746 -0.7454 -1.9299 329.7335 -3996.5332)" gradientUnits="userSpaceOnUse">
			<stop  offset="0" style="stop-color:#FFFFFF"/>
			<stop  offset="1" style="stop-color:#FFFFFF;stop-opacity:0"/>
		</radialGradient>
		<path class="st12" d="M71.88,89.66c-0.64-1.65-0.25-3.39,0.87-3.88c1.12-0.49,2.54,0.45,3.17,2.1c0.64,1.65,0.25,3.39-0.87,3.88
			C73.94,92.25,72.52,91.31,71.88,89.66z"/>
	</g>
</g>
</svg>
